<svg width="1094" height="783" viewBox="0 0 1094 783" fill="none" xmlns="http://www.w3.org/2000/svg">
<path d="M-460.715 732.605C-449.229 732.47 -322.847 731.249 -322.847 731.08C-322.915 710.434 -323.287 692.093 -323.423 663.717C-323.525 644.596 -324.405 614.288 -322.847 553.502C-320.543 462.341 -320.407 361.076 -256.369 288.154C-221.843 248.862 -162.447 222.52 -110.777 241.437C-64.1881 258.49 -39.725 311.546 -26.1042 356.025C-9.46791 410.336 -6.96065 467.324 -3.19969 523.601C-0.929545 557.808 0.256339 586.218 0.933983 605.915C27.9383 605.711 68.4618 605.508 95.4661 605.304C122.166 605.101 148.899 604.897 176.445 604.694C175.632 517.838 172.888 448.034 184.645 380.977C197.554 307.308 232.216 234.962 291.544 189.466C285.31 389.689 388.38 589.947 554.879 701.212C625.456 748.403 707.993 780.474 793.005 781.966C877.982 783.424 965.195 751.929 1022.08 688.77C1086.53 617.204 1105.67 511.871 1085.17 417.726C1064.67 323.581 1008.4 240.149 939.241 173.125C813.741 51.5198 640.601 -21.5045 465.903 -18.9618C465.937 -59.0675 465.971 -99.1394 466.039 -139.245C407.727 -139.821 349.381 -140.432 291.07 -141.008L290.663 5.04055C187.864 33.1451 126.706 114.001 84.6576 211.977C81.2693 200.247 17.3331 76.0308 -93.5642 42.3325C-167.564 19.8218 -232.618 48.6382 -261.384 61.3852C-342.736 97.4228 -383.937 161.192 -409.315 200.45C-451.77 266.152 -465.966 325.717 -477.656 375.281C-492.937 440.203 -496.224 565.605 -500.12 633.511C-502.458 674.599 -503 708.908 -503 733.08L-460.715 732.605ZM477.525 148.886C507.85 145.36 538.717 144.817 568.77 150.377C616.036 159.158 659.406 182.685 700.167 208.688C748.856 239.776 795.444 275.169 833.562 319.038C871.68 362.907 901.124 415.76 911.864 473.359C916.133 496.31 917.285 520.889 907.968 542.213C895.126 571.64 864.463 589.438 833.528 595.676C698.676 622.831 569.516 496.412 515.71 382.807C481.557 310.698 467.801 228.622 476.576 148.987C476.915 148.953 477.22 148.919 477.559 148.886L477.525 148.886Z" fill="#DDFFBB"/>
</svg>
