<svg width="408" height="116" viewBox="0 0 408 116" fill="none" xmlns="http://www.w3.org/2000/svg">
<path d="M88.6207 0.84967C79.4025 0.84967 72.5691 3.72279 67.2363 7.97544C67.0225 8.14297 66.9547 8.43883 67.0759 8.68123L74.052 22.947C74.2445 23.3463 74.8005 23.389 75.0501 23.0254C78.7395 17.6357 82.4467 14.759 87.6191 14.759C97.3042 14.759 99.5286 24.3301 92.8484 37.4587L84.9171 53.1112C84.7032 53.5389 84.09 53.5318 83.8833 53.1005L71.8169 28.3297L63.5826 11.3048L59.5189 2.95283C59.4226 2.75321 59.2194 2.62488 58.9948 2.62488H41.3605C40.9327 2.62488 40.6547 3.07045 40.84 3.45544L51.9546 26.3905L51.976 26.3762L62.6165 48.3666C62.6165 48.3666 62.6415 48.3987 62.6486 48.413L77.0071 77.9711C77.0998 78.1743 77.3029 78.2991 77.5275 78.2991H91.2764C91.4939 78.2991 91.6935 78.1779 91.7897 77.9854L110.878 41.2444C120.671 22.3232 113.659 0.84967 88.6243 0.84967H88.6207ZM40.0095 52.3768C39.7813 52.8117 39.1468 52.7868 38.9579 52.3305L18.7641 2.98847C18.675 2.77102 18.4611 2.62844 18.2294 2.62844H0.580744C0.163678 2.62844 -0.114365 3.0562 0.0460446 3.43405L31.8214 77.9462C31.9141 78.16 32.1244 78.2991 32.3561 78.2991H46.0836C46.3011 78.2991 46.5007 78.1743 46.597 77.9818L59.5509 52.441C59.64 52.2664 59.6436 52.0596 59.5581 51.8814L50.8852 33.5626C50.6607 33.0849 49.9869 33.0742 49.7445 33.5412L40.0059 52.3733L40.0095 52.3768Z" fill="#213555"/>
<path d="M141.306 3.10251V77.8285C141.306 78.0887 141.096 78.3026 140.832 78.3026H124.641C124.381 78.3026 124.167 78.0923 124.167 77.8285V3.10251C124.167 2.84229 124.377 2.62842 124.641 2.62842H140.832C141.092 2.62842 141.306 2.83873 141.306 3.10251Z" fill="#213555"/>
<path d="M180.336 66.0616C192.688 66.2612 199.254 62.611 199.254 57.1571C199.254 41.5759 152.739 55.5993 152.739 24.4406C152.739 9.41556 163.867 0.84967 183.231 0.84967C194.759 0.84967 203.036 3.44831 209.666 8.00751C209.837 8.12515 209.937 8.31763 209.937 8.52438V22.6084C209.937 23.1252 209.342 23.4211 208.935 23.1003C197.971 14.5237 183.231 14.8695 183.231 14.8695C173.995 14.8695 168.765 17.8745 168.765 22.6583C168.765 38.2394 215.281 24.216 215.281 55.3747C215.281 71.0664 202.594 80.0814 180.336 80.0814C168.808 80.0814 159.447 77.4827 152.788 72.9235C152.617 72.8059 152.518 72.6099 152.518 72.4031V58.148C152.518 57.6597 153.049 57.3602 153.466 57.6133C156.706 59.606 167.831 65.8548 180.336 66.058V66.0616Z" fill="#213555"/>
<path d="M242.426 3.10251V77.8285C242.426 78.0887 242.216 78.3026 241.952 78.3026H225.761C225.501 78.3026 225.287 78.0923 225.287 77.8285V3.10251C225.287 2.84229 225.497 2.62842 225.761 2.62842H241.952C242.212 2.62842 242.426 2.83873 242.426 3.10251Z" fill="#213555"/>
<path d="M252.221 40.4638C252.221 17.5394 269.36 0.84613 292.95 0.84613C316.541 0.84613 333.68 17.5394 333.68 40.4638C333.68 63.3881 316.541 80.0814 292.95 80.0814C269.36 80.0814 252.221 63.3881 252.221 40.4638ZM292.95 66.0616C306.528 66.0616 316.32 55.2678 316.32 40.4673C316.32 25.6669 306.528 14.8731 292.95 14.8731C279.373 14.8731 269.581 25.6669 269.581 40.4673C269.581 55.2678 279.373 66.0616 292.95 66.0616Z" fill="#213555"/>
<path d="M390.522 36.0614V3.20946C390.522 2.88864 390.783 2.62842 391.103 2.62842H407.084C407.405 2.62842 407.665 2.88864 407.665 3.20946V77.7216C407.665 78.0424 407.405 78.3026 407.084 78.3026H391.096C390.779 78.3026 390.526 78.0495 390.522 77.7322C390.244 58.5651 375.936 39.3302 361.709 23.7562C361.353 23.3676 360.704 23.6207 360.704 24.1518V77.7216C360.704 78.0424 360.444 78.3026 360.123 78.3026H344.143C343.822 78.3026 343.562 78.0424 343.562 77.7216V3.20946C343.562 2.88864 343.822 2.62842 344.143 2.62842H360.447C360.611 2.62842 360.761 2.69258 360.871 2.81378C366.251 8.69547 379.158 20.7618 389.467 36.3822C389.784 36.8599 390.529 36.6353 390.529 36.0614H390.522Z" fill="#213555"/>
<path d="M187.746 107.29C187.746 104.182 190.113 101.893 193.311 101.893C194.858 101.893 196.251 102.41 197.192 103.44L196.48 104.153C195.617 103.273 194.555 102.895 193.339 102.895C190.776 102.895 188.851 104.774 188.851 107.294C188.851 109.814 190.776 111.693 193.339 111.693C194.551 111.693 195.613 111.315 196.48 110.42L197.192 111.133C196.251 112.163 194.858 112.694 193.296 112.694C190.113 112.694 187.746 110.406 187.746 107.297V107.29Z" fill="#213555"/>
<path d="M200.693 107.29C200.693 104.196 203.06 101.893 206.272 101.893C209.484 101.893 211.836 104.182 211.836 107.29C211.836 110.399 209.455 112.687 206.272 112.687C203.089 112.687 200.693 110.381 200.693 107.29ZM210.717 107.29C210.717 104.759 208.821 102.892 206.276 102.892C203.73 102.892 201.802 104.756 201.802 107.29C201.802 109.825 203.713 111.689 206.276 111.689C208.839 111.689 210.717 109.825 210.717 107.29Z" fill="#213555"/>
<path d="M227.653 101.986V112.602H226.577V104.111L222.406 111.251H221.875L217.704 104.154V112.598H216.628V101.983H217.551L222.16 109.853L226.723 101.983H227.646L227.653 101.986Z" fill="#213555"/>
<path d="M233.293 108.064V101.983H234.416V108.018C234.416 110.534 235.599 111.686 237.66 111.686C239.72 111.686 240.921 110.534 240.921 108.018V101.983H242.012V108.064C242.012 111.112 240.376 112.687 237.66 112.687C234.943 112.687 233.293 111.112 233.293 108.064Z" fill="#213555"/>
<path d="M256.535 101.986V112.602H255.608L248.785 103.99V112.602H247.662V101.986H248.585L255.422 110.598V101.986H256.531H256.535Z" fill="#213555"/>
<path d="M262.266 101.986H263.389V112.602H262.266V101.986Z" fill="#213555"/>
<path d="M268.176 107.29C268.176 104.182 270.543 101.893 273.74 101.893C275.287 101.893 276.681 102.41 277.622 103.44L276.909 104.153C276.047 103.273 274.984 102.895 273.769 102.895C271.206 102.895 269.281 104.774 269.281 107.294C269.281 109.814 271.206 111.693 273.769 111.693C274.981 111.693 276.043 111.315 276.909 110.42L277.622 111.133C276.681 112.163 275.287 112.694 273.726 112.694C270.543 112.694 268.176 110.406 268.176 107.297V107.29Z" fill="#213555"/>
<path d="M288.677 109.764H282.763L281.491 112.598H280.321L285.173 101.983H286.281L291.133 112.598H289.949L288.677 109.764ZM288.267 108.855L285.718 103.155L283.169 108.855H288.263H288.267Z" fill="#213555"/>
<path d="M302.807 110.417L303.52 111.129C302.593 112.145 301.213 112.677 299.684 112.691L299.502 113.389C300.336 113.464 300.793 113.949 300.793 114.619C300.793 115.439 300.094 115.938 299.078 115.938C298.579 115.938 298.169 115.831 297.805 115.589L298.062 115.011C298.365 115.207 298.7 115.3 299.064 115.3C299.67 115.3 300.005 115.043 300.005 114.587C300.005 114.177 299.702 113.889 299.064 113.889H298.714L299.032 112.659C296.151 112.402 294.073 110.203 294.073 107.29C294.073 104.182 296.44 101.893 299.638 101.893C301.185 101.893 302.579 102.41 303.52 103.44L302.807 104.153C301.944 103.273 300.882 102.895 299.666 102.895C297.103 102.895 295.178 104.774 295.178 107.294C295.178 109.814 297.103 111.693 299.666 111.693C300.878 111.693 301.94 111.315 302.807 110.42V110.417Z" fill="#213555"/>
<path d="M314.573 109.764H308.66L307.387 112.598H306.218L311.069 101.983H312.178L317.029 112.598H315.846L314.573 109.764ZM314.163 108.855L311.615 103.155L309.066 108.855H314.16H314.163ZM309.886 100.97H309.233C309.266 99.9543 309.793 99.302 310.599 99.302C311.54 99.302 311.993 100.332 312.584 100.332C313.041 100.332 313.344 99.9686 313.372 99.3911H314.024C313.992 100.379 313.465 101.027 312.659 101.027C311.718 101.027 311.28 99.9971 310.674 99.9971C310.217 99.9971 309.914 100.361 309.886 100.967V100.97Z" fill="#213555"/>
<path d="M319.967 107.29C319.967 104.196 322.334 101.893 325.546 101.893C328.757 101.893 331.11 104.182 331.11 107.29C331.11 110.399 328.729 112.687 325.546 112.687C322.362 112.687 319.967 110.381 319.967 107.29ZM329.991 107.29C329.991 104.759 328.094 102.892 325.549 102.892C323.004 102.892 321.075 104.756 321.075 107.29C321.075 109.825 322.986 111.689 325.549 111.689C328.112 111.689 329.991 109.825 329.991 107.29Z" fill="#213555"/>
<path d="M350.973 101.986L346.271 112.602H345.163L340.461 101.986H341.673L345.737 111.204L349.829 101.986H350.966H350.973Z" fill="#213555"/>
<path d="M354.78 101.986H355.903V112.602H354.78V101.986Z" fill="#213555"/>
<path d="M360.615 111.311L361.054 110.449C361.813 111.19 363.16 111.739 364.558 111.739C366.543 111.739 367.409 110.905 367.409 109.861C367.409 106.948 360.875 108.738 360.875 104.809C360.875 103.248 362.087 101.897 364.786 101.897C365.984 101.897 367.228 102.246 368.076 102.838L367.698 103.733C366.789 103.141 365.727 102.852 364.786 102.852C362.847 102.852 361.98 103.715 361.98 104.777C361.98 107.69 368.515 105.929 368.515 109.796C368.515 111.358 367.27 112.691 364.558 112.691C362.964 112.691 361.403 112.131 360.615 111.311Z" fill="#213555"/>
<path d="M373.138 108.064V101.983H374.261V108.018C374.261 110.534 375.444 111.686 377.504 111.686C379.565 111.686 380.766 110.534 380.766 108.018V101.983H381.857V108.064C381.857 111.112 380.221 112.687 377.504 112.687C374.788 112.687 373.138 111.112 373.138 108.064Z" fill="#213555"/>
<path d="M393.941 109.764H388.028L386.755 112.598H385.586L390.437 101.983H391.546L396.398 112.598H395.214L393.941 109.764ZM393.532 108.855L390.983 103.155L388.434 108.855H393.528H393.532Z" fill="#213555"/>
<path d="M400.429 101.986H401.552V111.629H407.494V112.598H400.429V101.983V101.986Z" fill="#213555"/>
</svg>
