<svg width="397" height="113" viewBox="0 0 397 113" fill="none" xmlns="http://www.w3.org/2000/svg">
<path d="M86.1545 0.778259C77.1928 0.778259 70.5495 3.57143 65.3652 7.70572C65.1573 7.8686 65.0914 8.15622 65.2093 8.39187L71.9912 22.2606C72.1783 22.6488 72.7189 22.6904 72.9615 22.3369C76.5482 17.0971 80.1523 14.3005 85.1807 14.3005C94.5964 14.3005 96.7588 23.6052 90.2645 36.3685L82.5539 51.5854C82.346 52.0012 81.7499 51.9943 81.5489 51.575L69.8183 27.4935L61.8131 10.9425L57.8625 2.82289C57.7689 2.62882 57.5714 2.50406 57.3531 2.50406H40.2094C39.7936 2.50406 39.5233 2.93724 39.7035 3.31151L50.5088 25.6083L50.5296 25.5944L60.874 46.9728C60.874 46.9728 60.8982 47.004 60.9052 47.0179L74.864 75.7535C74.9541 75.951 75.1517 76.0723 75.37 76.0723H88.7363C88.9477 76.0723 89.1417 75.9545 89.2353 75.7673L107.793 40.0488C117.312 21.6542 110.496 0.778259 86.158 0.778259H86.1545ZM38.896 50.8715C38.6742 51.2943 38.0574 51.27 37.8737 50.8264L18.2419 2.85753C18.1553 2.64614 17.9473 2.50753 17.7221 2.50753H0.564582C0.159123 2.50753 -0.111182 2.92338 0.0447633 3.29072L30.9359 75.7292C31.026 75.9371 31.2304 76.0723 31.4557 76.0723H44.8012C45.0126 76.0723 45.2066 75.951 45.3002 75.7639L57.8937 50.9339C57.9803 50.7641 57.9838 50.5631 57.9006 50.3898L49.4691 32.5808C49.2508 32.1164 48.5958 32.106 48.3602 32.56L38.8926 50.868L38.896 50.8715Z" fill="#F5EFE7"/>
<path d="M137.375 2.96841V75.6148C137.375 75.8678 137.17 76.0758 136.914 76.0758H121.174C120.921 76.0758 120.713 75.8713 120.713 75.6148V2.96841C120.713 2.71543 120.917 2.50751 121.174 2.50751H136.914C137.167 2.50751 137.375 2.71196 137.375 2.96841Z" fill="#F5EFE7"/>
<path d="M175.318 64.1754C187.326 64.3694 193.709 60.8208 193.709 55.5187C193.709 40.3711 148.488 54.0043 148.488 23.7127C148.488 9.10577 159.307 0.778259 178.132 0.778259C189.339 0.778259 197.386 3.30458 203.832 7.73691C203.998 7.85127 204.095 8.0384 204.095 8.23939V21.9314C204.095 22.4339 203.516 22.7216 203.121 22.4097C192.462 14.0718 178.132 14.4079 178.132 14.4079C169.153 14.4079 164.069 17.3293 164.069 21.9799C164.069 37.1275 209.29 23.4944 209.29 53.7859C209.29 69.0409 196.956 77.805 175.318 77.805C164.111 77.805 155.01 75.2787 148.537 70.8464C148.37 70.732 148.273 70.5414 148.273 70.3404V56.482C148.273 56.0073 148.79 55.7162 149.195 55.9622C152.345 57.8994 163.161 63.9744 175.318 64.1719V64.1754Z" fill="#F5EFE7"/>
<path d="M235.679 2.96841V75.6148C235.679 75.8678 235.474 76.0758 235.218 76.0758H219.478C219.225 76.0758 219.017 75.8713 219.017 75.6148V2.96841C219.017 2.71543 219.221 2.50751 219.478 2.50751H235.218C235.471 2.50751 235.679 2.71196 235.679 2.96841Z" fill="#F5EFE7"/>
<path d="M245.201 39.29C245.201 17.0036 261.863 0.774841 284.797 0.774841C307.732 0.774841 324.394 17.0036 324.394 39.29C324.394 61.5763 307.732 77.8051 284.797 77.8051C261.863 77.8051 245.201 61.5763 245.201 39.29ZM284.797 64.1754C297.997 64.1754 307.517 53.682 307.517 39.2934C307.517 24.9048 297.997 14.4114 284.797 14.4114C271.598 14.4114 262.078 24.9048 262.078 39.2934C262.078 53.682 271.598 64.1754 284.797 64.1754Z" fill="#F5EFE7"/>
<path d="M379.655 35.01V3.07238C379.655 2.76049 379.908 2.50751 380.22 2.50751H395.755C396.067 2.50751 396.32 2.76049 396.32 3.07238V75.5109C396.32 75.8228 396.067 76.0758 395.755 76.0758H380.213C379.904 76.0758 379.658 75.8297 379.655 75.5213C379.385 56.8875 365.474 38.1879 351.644 23.0473C351.297 22.6695 350.666 22.9156 350.666 23.432V75.5109C350.666 75.8228 350.413 76.0758 350.101 76.0758H334.566C334.254 76.0758 334.001 75.8228 334.001 75.5109V3.07238C334.001 2.76049 334.254 2.50751 334.566 2.50751H350.417C350.576 2.50751 350.722 2.56988 350.829 2.68771C356.059 8.40572 368.607 20.1363 378.629 35.3219C378.938 35.7863 379.662 35.568 379.662 35.01H379.655Z" fill="#F5EFE7"/>
<path d="M182.522 104.257C182.522 101.235 184.824 99.0103 187.932 99.0103C189.436 99.0103 190.791 99.5127 191.706 100.514L191.013 101.207C190.174 100.351 189.141 99.984 187.96 99.984C185.468 99.984 183.597 101.81 183.597 104.26C183.597 106.71 185.468 108.537 187.96 108.537C189.138 108.537 190.171 108.169 191.013 107.3L191.706 107.993C190.791 108.994 189.436 109.511 187.918 109.511C184.824 109.511 182.522 107.286 182.522 104.264V104.257Z" fill="#F5EFE7"/>
<path d="M195.109 104.257C195.109 101.249 197.41 99.0103 200.533 99.0103C203.655 99.0103 205.942 101.235 205.942 104.257C205.942 107.279 203.627 109.504 200.533 109.504C197.438 109.504 195.109 107.262 195.109 104.257ZM204.854 104.257C204.854 101.796 203.011 99.9806 200.536 99.9806C198.062 99.9806 196.187 101.793 196.187 104.257C196.187 106.721 198.045 108.533 200.536 108.533C203.028 108.533 204.854 106.721 204.854 104.257Z" fill="#F5EFE7"/>
<path d="M221.318 99.1001V109.42H220.272V101.166L216.217 108.107H215.701L211.646 101.207V109.417H210.6V99.0967H211.497L215.978 106.748L220.414 99.0967H221.311L221.318 99.1001Z" fill="#F5EFE7"/>
<path d="M226.801 105.009V99.0967H227.892V104.964C227.892 107.41 229.043 108.53 231.046 108.53C233.049 108.53 234.217 107.41 234.217 104.964V99.0967H235.277V105.009C235.277 107.972 233.687 109.503 231.046 109.503C228.405 109.503 226.801 107.972 226.801 105.009Z" fill="#F5EFE7"/>
<path d="M249.395 99.1003V109.42H248.494L241.861 101.048V109.42H240.77V99.1003H241.667L248.314 107.473V99.1003H249.392H249.395Z" fill="#F5EFE7"/>
<path d="M254.967 99.1003H256.058V109.42H254.967V99.1003Z" fill="#F5EFE7"/>
<path d="M260.714 104.257C260.714 101.235 263.015 99.0103 266.123 99.0103C267.627 99.0103 268.982 99.5127 269.897 100.514L269.204 101.207C268.366 100.351 267.333 99.984 266.151 99.984C263.66 99.984 261.788 101.81 261.788 104.26C261.788 106.71 263.66 108.537 266.151 108.537C267.329 108.537 268.362 108.169 269.204 107.3L269.897 107.993C268.982 108.994 267.627 109.511 266.11 109.511C263.015 109.511 260.714 107.286 260.714 104.264V104.257Z" fill="#F5EFE7"/>
<path d="M280.644 106.662H274.894L273.657 109.417H272.521L277.237 99.0967H278.315L283.031 109.417H281.881L280.644 106.662ZM280.245 105.778L277.767 100.237L275.289 105.778H280.242H280.245Z" fill="#F5EFE7"/>
<path d="M294.38 107.296L295.073 107.989C294.172 108.977 292.831 109.493 291.344 109.507L291.168 110.186C291.978 110.259 292.422 110.73 292.422 111.382C292.422 112.179 291.743 112.664 290.755 112.664C290.27 112.664 289.871 112.56 289.518 112.325L289.768 111.763C290.062 111.954 290.388 112.044 290.741 112.044C291.33 112.044 291.656 111.794 291.656 111.351C291.656 110.952 291.362 110.672 290.741 110.672H290.402L290.71 109.476C287.91 109.226 285.89 107.088 285.89 104.257C285.89 101.235 288.191 99.0103 291.299 99.0103C292.803 99.0103 294.158 99.5127 295.073 100.514L294.38 101.207C293.541 100.351 292.509 99.984 291.327 99.984C288.835 99.984 286.964 101.81 286.964 104.26C286.964 106.71 288.835 108.537 291.327 108.537C292.505 108.537 293.538 108.169 294.38 107.3V107.296Z" fill="#F5EFE7"/>
<path d="M305.819 106.662H300.07L298.833 109.417H297.696L302.413 99.0968H303.491L308.207 109.417H307.056L305.819 106.662ZM305.421 105.778L302.943 100.237L300.465 105.778H305.417H305.421ZM301.262 98.1126H300.628C300.659 97.1249 301.172 96.4907 301.955 96.4907C302.87 96.4907 303.31 97.4922 303.886 97.4922C304.329 97.4922 304.624 97.1388 304.651 96.5774H305.286C305.254 97.5373 304.742 98.168 303.958 98.168C303.043 98.168 302.617 97.1665 302.028 97.1665C301.585 97.1665 301.29 97.52 301.262 98.1091V98.1126Z" fill="#F5EFE7"/>
<path d="M311.062 104.257C311.062 101.249 313.364 99.0103 316.486 99.0103C319.608 99.0103 321.896 101.235 321.896 104.257C321.896 107.279 319.581 109.504 316.486 109.504C313.391 109.504 311.062 107.262 311.062 104.257ZM320.807 104.257C320.807 101.796 318.964 99.9806 316.489 99.9806C314.015 99.9806 312.14 101.793 312.14 104.257C312.14 106.721 313.998 108.533 316.489 108.533C318.981 108.533 320.807 106.721 320.807 104.257Z" fill="#F5EFE7"/>
<path d="M341.206 99.1003L336.635 109.42H335.557L330.986 99.1003H332.165L336.115 108.062L340.094 99.1003H341.199H341.206Z" fill="#F5EFE7"/>
<path d="M344.906 99.1003H345.998V109.42H344.906V99.1003Z" fill="#F5EFE7"/>
<path d="M350.579 108.166L351.005 107.327C351.743 108.048 353.053 108.582 354.412 108.582C356.342 108.582 357.184 107.771 357.184 106.755C357.184 103.924 350.832 105.664 350.832 101.845C350.832 100.327 352.01 99.0137 354.634 99.0137C355.798 99.0137 357.008 99.3533 357.832 99.9285L357.465 100.798C356.581 100.223 355.549 99.9424 354.634 99.9424C352.748 99.9424 351.906 100.781 351.906 101.814C351.906 104.645 358.259 102.933 358.259 106.693C358.259 108.211 357.049 109.507 354.412 109.507C352.863 109.507 351.345 108.963 350.579 108.166Z" fill="#F5EFE7"/>
<path d="M362.754 105.009V99.0967H363.846V104.964C363.846 107.41 364.996 108.53 366.999 108.53C369.002 108.53 370.17 107.41 370.17 104.964V99.0967H371.23V105.009C371.23 107.972 369.64 109.503 366.999 109.503C364.358 109.503 362.754 107.972 362.754 105.009Z" fill="#F5EFE7"/>
<path d="M382.978 106.662H377.228L375.991 109.417H374.854L379.571 99.0967H380.649L385.365 109.417H384.215L382.978 106.662ZM382.579 105.778L380.101 100.237L377.623 105.778H382.576H382.579Z" fill="#F5EFE7"/>
<path d="M389.285 99.1001H390.377V108.474H396.154V109.417H389.285V99.0967V99.1001Z" fill="#F5EFE7"/>
</svg>
