<svg width="248" height="179" viewBox="0 0 248 179" fill="none" xmlns="http://www.w3.org/2000/svg">
<path d="M18.6325 154.573C21.447 154.573 23.7244 153.718 25.4621 152.006C27.1997 150.295 28.0686 148.033 28.0686 145.219V122.7H37.1755V144.887C37.1755 147.702 36.7332 150.242 35.8512 152.504C34.9666 154.768 33.7265 156.698 32.1257 158.299C30.525 159.899 28.5793 161.129 26.2888 161.982C23.9982 162.838 21.447 163.264 18.6299 163.264C15.8128 163.264 13.2615 162.835 10.971 161.982C8.68042 161.126 6.71897 159.899 5.09188 158.299C3.46216 156.698 2.20631 154.768 1.32431 152.504C0.439682 150.242 0 147.702 0 144.887V122.7H9.10695V145.219C9.10695 148.033 9.98895 150.298 11.7556 152.006C13.5222 153.718 15.8128 154.573 18.6272 154.573H18.6325Z" fill="#065084"/>
<path d="M64.0862 130.978C61.1612 130.978 58.8416 131.778 57.1329 133.379C55.4216 134.98 54.5659 137.16 54.5659 139.919V162.437H45.459V140.251C45.459 137.436 45.9013 134.898 46.7833 132.634C47.6653 130.372 48.9212 128.44 50.5509 126.839C52.178 125.238 54.1394 124.011 56.43 123.156C58.7205 122.3 61.2744 121.874 64.0889 121.874V130.98L64.0862 130.978Z" fill="#065084"/>
<path d="M67.3984 142.568C67.3984 139.642 67.9355 136.925 69.0124 134.414C70.0892 131.902 71.5504 129.709 73.4013 127.832C75.2495 125.957 77.4427 124.493 79.9833 123.443C82.5214 122.395 85.2253 121.868 88.0977 121.868C90.9701 121.868 93.7399 122.395 96.2516 123.443C98.7633 124.491 100.956 125.954 102.834 127.832C104.708 129.709 106.172 131.902 107.223 134.414C108.27 136.925 108.797 139.642 108.797 142.568C108.797 145.493 108.27 148.144 107.223 150.682C106.175 153.223 104.711 155.416 102.834 157.264C100.956 159.115 98.7633 160.576 96.2516 161.653C93.7399 162.73 91.0228 163.267 88.0977 163.267C85.1726 163.267 82.5214 162.73 79.9833 161.653C77.4427 160.576 75.2495 159.115 73.4013 157.264C71.5504 155.416 70.0892 153.223 69.0124 150.682C67.9355 148.144 67.3984 145.44 67.3984 142.568ZM76.5054 142.568C76.5054 144.224 76.8082 145.756 77.4163 147.162C78.0219 148.57 78.8381 149.784 79.8596 150.806C80.8811 151.827 82.0949 152.641 83.5034 153.249C84.912 153.857 86.4417 154.16 88.0977 154.16C89.7538 154.16 91.2861 153.857 92.692 153.249C94.1006 152.641 95.3275 151.827 96.3753 150.806C97.4232 149.784 98.2367 148.57 98.8186 147.162C99.3978 145.753 99.6874 144.224 99.6874 142.568C99.6874 140.912 99.3978 139.379 98.8186 137.973C98.2394 136.565 97.4232 135.338 96.3753 134.29C95.3248 133.242 94.0979 132.429 92.692 131.847C91.2834 131.267 89.7538 130.978 88.0977 130.978C86.4417 130.978 84.9094 131.267 83.5034 131.847C82.0949 132.426 80.8811 133.242 79.8596 134.29C78.8381 135.34 78.0245 136.567 77.4163 137.973C76.8082 139.382 76.5054 140.912 76.5054 142.568Z" fill="#065084"/>
<path d="M124.523 178.169H115.416V137.602H124.523V142.984C124.523 144.529 124.812 145.993 125.392 147.372C125.971 148.752 126.758 149.939 127.751 150.932C128.743 151.925 129.915 152.712 131.268 153.291C132.619 153.87 134.096 154.16 135.696 154.16C137.297 154.16 138.69 153.87 140.043 153.291C141.394 152.712 142.581 151.925 143.603 150.932C144.624 149.939 145.425 148.752 146.004 147.372C146.583 145.993 146.873 144.532 146.873 142.984C146.873 141.435 146.583 139.908 146.004 138.555C145.425 137.204 144.624 136.03 143.603 135.038C142.581 134.045 141.394 133.258 140.043 132.679C138.69 132.099 137.242 131.81 135.696 131.81H115.413V122.703H135.696C138.511 122.703 141.16 123.229 143.645 124.275C146.128 125.325 148.281 126.757 150.103 128.579C151.925 130.401 153.36 132.539 154.408 134.996C155.456 137.452 155.982 140.116 155.982 142.984C155.982 145.851 155.472 148.447 154.45 150.932C153.428 153.415 152.049 155.568 150.311 157.39C148.574 159.212 146.515 160.647 144.142 161.695C141.768 162.743 139.203 163.267 136.444 163.267C134.125 163.267 131.974 162.906 129.986 162.19C127.998 161.474 126.179 160.479 124.523 159.21V178.169Z" fill="#065084"/>
<path d="M160.95 142.568C160.95 139.587 161.458 136.828 162.482 134.287C163.504 131.749 164.926 129.556 166.748 127.705C168.57 125.857 170.734 124.422 173.245 123.401C175.757 122.379 178.503 121.868 181.484 121.868C184.464 121.868 187.21 122.379 189.722 123.401C192.233 124.422 194.4 125.857 196.222 127.705C198.044 129.556 199.463 131.749 200.487 134.287C201.509 136.828 202.02 139.587 202.02 142.568C202.02 142.955 202.006 143.326 201.978 143.687C201.949 144.047 201.88 144.5 201.77 145.053H170.226C170.723 147.867 171.95 150.09 173.909 151.717C175.868 153.346 178.393 154.16 181.484 154.16C183.579 154.16 185.443 153.776 187.07 153.001C188.698 152.23 190.009 151.098 191.004 149.608H200.94C200.277 151.706 199.339 153.596 198.126 155.279C196.912 156.964 195.461 158.399 193.779 159.584C192.094 160.771 190.219 161.682 188.15 162.316C186.08 162.951 183.858 163.269 181.486 163.269C178.506 163.269 175.76 162.759 173.248 161.737C170.736 160.716 168.57 159.294 166.75 157.475C164.928 155.653 163.507 153.473 162.485 150.935C161.464 148.397 160.953 145.608 160.953 142.573L160.95 142.568ZM192.328 138.429C191.554 136.112 190.23 134.29 188.355 132.966C186.478 131.641 184.188 130.978 181.484 130.978C178.78 130.978 176.405 131.641 174.53 132.966C172.653 134.29 171.355 136.112 170.639 138.429H192.331H192.328Z" fill="#065084"/>
<path d="M227.679 130.978C226.023 130.978 224.491 131.267 223.085 131.847C221.677 132.426 220.463 133.242 219.441 134.29C218.42 135.34 217.606 136.567 216.998 137.973C216.39 139.382 216.087 140.912 216.087 142.568C216.087 144.224 216.39 145.756 216.998 147.162C217.604 148.57 218.42 149.784 219.441 150.806C220.463 151.827 221.677 152.641 223.085 153.249C224.494 153.857 226.023 154.16 227.679 154.16C230.162 154.16 232.358 153.525 234.262 152.256C236.165 150.987 237.26 150.174 238.361 148.086H247.881C247.191 150.603 246.515 151.677 245.272 153.665C244.029 155.653 242.526 157.348 240.759 158.757C238.993 160.165 236.992 161.269 234.756 162.069C232.521 162.869 230.162 163.269 227.677 163.269C224.807 163.269 222.101 162.732 219.562 161.656C217.022 160.579 214.829 159.118 212.98 157.267C211.13 155.418 209.668 153.225 208.591 150.685C207.515 148.147 206.978 145.443 206.978 142.57C206.978 139.698 207.515 136.928 208.591 134.416C209.668 131.905 211.13 129.711 212.98 127.834C214.829 125.96 217.022 124.496 219.562 123.445C222.101 122.397 224.804 121.871 227.677 121.871C230.16 121.871 232.521 122.271 234.756 123.071C236.992 123.872 238.993 124.975 240.759 126.384C242.526 127.792 244.079 129.456 245.272 131.475C246.186 133.024 246.891 134.069 247.881 137.231H238.361C237.618 135.541 236.168 134.153 234.262 132.881C232.358 131.612 230.162 130.978 227.679 130.978Z" fill="#065084"/>
<path d="M132.381 56.2556L131.352 57.2903L129.93 58.712L128.508 60.1338L106.603 82.0389L103.857 84.7823L77.513 58.4329C72.6949 53.6149 72.6949 45.8059 77.513 40.9878L104.202 14.2989L106.6 16.6974L128.506 38.6025L132.384 42.4807C136.188 46.2851 136.188 52.4485 132.384 56.253L132.381 56.2556Z" fill="url(#paint0_linear_245_78)"/>
<path d="M136.033 58.8174C138.553 56.2978 139.943 52.9462 139.943 49.3761C139.943 45.806 138.553 42.4544 136.031 39.9295L115.502 19.4013L117.814 17.0871C119.539 15.3626 121.798 14.499 124.064 14.499C126.331 14.499 128.585 15.3626 130.31 17.0871L133.524 20.3044L153.397 40.1743L154.687 41.4644L155.977 42.7598L156.914 43.6971C160.366 47.1461 160.366 52.7382 156.914 56.1872L155.98 57.1245L154.689 58.4146L153.399 59.7099L133.527 79.5798L130.31 82.7945C128.585 84.5243 126.323 85.3879 124.064 85.3879C121.805 85.3879 119.539 84.5243 117.814 82.7945L114.944 79.9247L132.274 62.5955L133.656 61.2106L135.038 59.8284L136.041 58.82L136.033 58.8174Z" fill="url(#paint1_linear_245_78)"/>
<path d="M170.363 58.4698L169.054 59.7862L167.243 61.5923L165.431 63.4037L137.563 91.2722L133.045 95.7796C130.628 98.2018 127.458 99.4102 124.285 99.4102C121.113 99.4102 117.94 98.2018 115.521 95.7796L107.538 87.7968L111.506 83.8292L114.476 86.8043C116.969 89.2949 120.284 90.6693 123.806 90.6693C127.329 90.6693 130.638 89.2949 133.132 86.8043L157.025 62.9114L158.365 61.5765L159.7 60.2364L160.671 59.2623C163.157 56.7769 164.528 53.4701 164.528 49.9447C164.528 46.4193 163.157 43.1099 160.669 40.6192L159.697 39.6477L158.362 38.3129L157.022 36.978L136.46 16.413L133.134 13.0878C130.641 10.5945 127.326 9.22279 123.809 9.22279C120.291 9.22279 116.974 10.5945 114.478 13.0878L112.088 15.4784L107.88 11.2711L115.521 3.63066C117.938 1.21373 121.108 0 124.285 0C127.463 0 130.628 1.21373 133.045 3.63066L137.558 8.13807L165.426 36.0065L167.237 37.8179L169.044 39.6293L170.36 40.9404C175.196 45.7822 175.196 53.6228 170.36 58.4645L170.363 58.4698Z" fill="url(#paint2_linear_245_78)"/>
<defs>
<linearGradient id="paint0_linear_245_78" x1="70.6755" y1="50.0737" x2="147.172" y2="48.8547" gradientUnits="userSpaceOnUse">
<stop stop-color="#065084"/>
<stop offset="1" stop-color="#497D74"/>
</linearGradient>
<linearGradient id="paint1_linear_245_78" x1="70.6865" y1="50.7925" x2="147.183" y2="49.5709" gradientUnits="userSpaceOnUse">
<stop stop-color="#065084"/>
<stop offset="1" stop-color="#497D74"/>
</linearGradient>
<linearGradient id="paint2_linear_245_78" x1="70.6838" y1="50.5634" x2="147.181" y2="49.3418" gradientUnits="userSpaceOnUse">
<stop stop-color="#065084"/>
<stop offset="1" stop-color="#497D74"/>
</linearGradient>
</defs>
</svg>
