<svg width="435" height="65" viewBox="0 0 435 65" fill="none" xmlns="http://www.w3.org/2000/svg">
<path d="M340.602 56.8923L342.517 61.1953H338.673L340.602 56.8923ZM340.169 55.785L336.325 64.2813H337.301L338.3 62.0504H342.892L343.881 64.2813H344.906L341.062 55.785H340.172H340.169Z" fill="#E4DCD1"/>
<path d="M349.324 56.7251V63.4016H351.299C353.434 63.4016 354.792 61.9681 354.792 60.088V60.0633C354.792 58.1942 353.431 56.7251 351.299 56.7251H349.324ZM348.374 55.8453H351.302C353.954 55.8453 355.784 57.6652 355.784 60.0387V60.0633C355.784 62.4368 353.954 64.2813 351.302 64.2813H348.374V55.8426V55.8453Z" fill="#E4DCD1"/>
<path d="M365.408 55.8453L362.397 63.111L359.398 55.8453H358.337L361.962 64.3416H362.806L366.433 55.8453H365.408Z" fill="#E4DCD1"/>
<path d="M376.649 60.088V60.0633C376.649 58.1476 375.252 56.5799 373.323 56.5799C371.394 56.5799 370.022 58.1229 370.022 60.0387V60.0633C370.022 61.9791 371.419 63.5468 373.348 63.5468C375.276 63.5468 376.649 62.0038 376.649 60.088ZM369.036 60.088V60.0633C369.036 57.7365 370.783 55.7001 373.348 55.7001C375.912 55.7001 377.638 57.7118 377.638 60.0387V60.0633C377.638 62.3902 375.89 64.4266 373.326 64.4266C370.762 64.4266 369.036 62.4149 369.036 60.088Z" fill="#E4DCD1"/>
<path d="M381.081 60.088V60.0633C381.081 57.7502 382.78 55.7001 385.311 55.7001C386.733 55.7001 387.613 56.1085 388.456 56.821L387.843 57.5446C387.204 56.9773 386.456 56.5799 385.276 56.5799C383.407 56.5799 382.07 58.1585 382.07 60.0387V60.0633C382.07 62.075 383.358 63.5715 385.407 63.5715C386.372 63.5715 387.262 63.1987 387.84 62.7273V60.6307H385.273V59.7756H388.755V63.1384C387.971 63.8483 386.804 64.4266 385.369 64.4266C382.72 64.4266 381.079 62.4971 381.079 60.088" fill="#E4DCD1"/>
<path d="M396.261 56.8923L398.176 61.1953H394.333L396.261 56.8923ZM395.828 55.785L391.985 64.2813H392.96L393.96 62.0504H398.552L399.541 64.2813H400.565L396.722 55.785H395.831H395.828Z" fill="#E4DCD1"/>
<path d="M404.984 56.7251V63.4016H406.96C409.094 63.4016 410.453 61.9681 410.453 60.088V60.0633C410.453 58.1942 409.091 56.7251 406.96 56.7251H404.984ZM404.034 55.8453H406.962C409.614 55.8453 411.444 57.6652 411.444 60.0387V60.0633C411.444 62.4368 409.614 64.2813 406.962 64.2813H404.034V55.8426V55.8453Z" fill="#E4DCD1"/>
<path d="M422.501 60.088V60.0633C422.501 58.1476 421.104 56.5799 419.176 56.5799C417.247 56.5799 415.874 58.1229 415.874 60.0387V60.0633C415.874 61.9791 417.272 63.5468 419.2 63.5468C421.129 63.5468 422.501 62.0038 422.501 60.088ZM414.888 60.088V60.0633C414.888 57.7365 416.636 55.7001 419.2 55.7001C421.765 55.7001 423.49 57.7118 423.49 60.0387V60.0633C423.49 62.3902 421.743 64.4266 419.178 64.4266C416.614 64.4266 414.888 62.4149 414.888 60.088Z" fill="#E4DCD1"/>
<path d="M426.696 63.0507L427.288 62.3518C428.167 63.1604 429.011 63.5441 430.178 63.5441C431.345 63.5441 432.057 62.9411 432.057 62.1107V62.086C432.057 61.3021 431.635 60.8691 429.865 60.4827C427.926 60.0606 427.036 59.4329 427.036 58.0489V58.0242C427.036 56.7114 428.205 55.722 429.805 55.722C431.046 55.722 431.901 56.0701 432.769 56.758L432.216 57.4925C431.433 56.8539 430.649 56.5771 429.783 56.5771C428.674 56.5771 427.989 57.1691 427.989 57.9393V57.9639C427.989 58.7587 428.411 59.2164 430.279 59.6029C432.159 60.0249 433.027 60.6992 433.027 61.9901V62.0147C433.027 63.4618 431.822 64.4019 430.148 64.4019C428.797 64.4019 427.715 63.9689 426.701 63.0507" fill="#E4DCD1"/>
<path d="M370.687 9.29384V15.4523H367.605C364.178 15.4523 361.754 16.1018 360.192 17.4284C358.606 18.7823 357.806 21.0352 357.806 24.1267V41.355H349.787V10.0914H357.74V14.5341C358.118 13.9394 358.704 13.1391 359.57 12.3498C359.948 12.0044 361.058 11.0424 362.775 10.3353C364.321 9.69673 365.586 9.58162 367.477 9.40895C368.794 9.28836 369.898 9.2774 370.685 9.29384" fill="#E4DCD1"/>
<path d="M333.056 29.2492C333.056 31.7817 332.232 33.6454 330.602 34.7855C329.076 35.8517 327.221 36.3916 325.093 36.3916C322.964 36.3916 321.378 35.9997 320.205 35.1939C318.961 34.3333 318.301 33.0451 318.301 31.4747C318.301 29.9043 318.934 28.6271 320.178 27.7089C321.339 26.8593 322.994 26.4262 325.09 26.4262H333.051V29.2437L333.056 29.2492ZM336.928 11.9606C334.396 10.1325 330.309 9.20618 324.769 9.20618H314.562V15.477L326.797 15.5428C328.648 15.5428 330.029 15.8086 331.002 16.354C332.095 16.968 332.761 18.0615 332.983 19.6018L333.144 20.7447H325.353C320.597 20.7447 316.893 21.7012 314.345 23.5951C311.849 25.4423 310.636 28.0022 310.636 31.4117C310.636 34.8211 311.767 37.4139 314.085 39.294C316.43 41.1879 319.693 42.1499 323.783 42.1499C327.394 42.1499 330.273 41.314 332.336 39.6613L334.032 38.3074V41.3057H340.588V21.1613C340.588 16.8145 339.352 13.7174 336.919 11.9579" fill="#E4DCD1"/>
<path d="M265.214 20.9859C265.214 11.481 260.647 7.83855 253.801 7.83855H246.089V34.1332H253.801C260.65 34.1332 265.214 30.4908 265.214 20.9859ZM238.684 0.616696H252.691C264.97 0.616696 272.682 6.72855 272.682 20.9859C272.682 35.2432 264.97 41.3551 252.691 41.3551H238.684V0.613953V0.616696Z" fill="#E4DCD1"/>
<path d="M299.152 9.44183V25.1216C299.152 31.0471 296.19 34.1962 290.637 34.1332C286.194 34.1332 284.468 32.0338 284.468 27.7747V9.44183H277.309V28.8874C277.309 35.9859 280.21 41.355 288.662 41.355C292.563 41.355 297.042 39.5653 299.152 36.6382V40.8617H306.371V9.44183H299.152Z" fill="#E4DCD1"/>
<path d="M426.748 22.0876V21.9013C426.748 17.8888 423.54 15.2358 418.603 15.2358C413.976 15.2358 411.261 17.7052 410.582 22.0876H426.748ZM418.913 41.3468C410.335 41.1604 403.239 35.9147 403.116 25.1737C403.116 15.9758 408.73 8.87726 418.726 8.87726C428.723 8.87726 433.35 14.4327 433.967 23.014C434.09 24.4337 434.03 25.7301 433.843 27.3361H410.519C411.258 32.5819 414.653 34.991 418.724 35.0513C422.611 35.2377 425.449 33.1986 426.252 29.7425H433.471C432.731 36.841 426.129 41.5935 418.91 41.3468" fill="#E4DCD1"/>
<path d="M184.048 9.29384V15.4523H180.966C177.538 15.4523 175.114 16.1018 173.552 17.4284C171.966 18.7823 171.166 21.0352 171.166 24.1267V41.355H163.147V10.0914H171.1V14.5341C171.479 13.9394 172.065 13.1391 172.931 12.3498C173.309 12.0044 174.418 11.0424 176.136 10.3353C177.681 9.69673 178.947 9.58162 180.837 9.40895C182.155 9.28836 183.259 9.2774 184.045 9.29384" fill="#E4DCD1"/>
<path d="M207.565 29.2492C207.565 31.7817 206.74 33.6454 205.11 34.7855C203.584 35.8517 201.729 36.3916 199.601 36.3916C197.472 36.3916 195.886 35.9997 194.713 35.1939C193.469 34.3333 192.809 33.0451 192.809 31.4747C192.809 29.9043 193.442 28.6271 194.686 27.7089C195.847 26.8593 197.502 26.4262 199.598 26.4262H207.559V29.2437L207.565 29.2492ZM211.433 11.9606C208.902 10.1325 204.814 9.20618 199.275 9.20618H189.067V15.477L201.302 15.5428C203.154 15.5428 204.535 15.8086 205.507 16.354C206.6 16.968 207.266 18.0615 207.488 19.6018L207.65 20.7447H199.858C195.102 20.7447 191.398 21.7012 188.851 23.5951C186.355 25.4423 185.141 28.0022 185.141 31.4117C185.141 34.8211 186.273 37.4139 188.59 39.294C190.935 41.1879 194.198 42.1499 198.291 42.1499C201.902 42.1499 204.781 41.314 206.844 39.6613L208.54 38.3074V41.3057H215.096V21.1613C215.096 16.8145 213.86 13.7174 211.427 11.9579" fill="#E4DCD1"/>
<path d="M0 0.616699V7.83855H13.0185V41.3551H20.5469V7.83855H33.5654V0.616699H0Z" fill="#E4DCD1"/>
<path d="M55.6549 22.0876V21.9013C55.6549 17.8888 52.4468 15.2358 47.5101 15.2358C42.8829 15.2358 40.168 17.7052 39.4886 22.0876H55.6549ZM47.8169 41.3468C39.2393 41.1604 32.1438 35.9147 32.0205 25.1737C32.0205 15.9758 37.6339 8.87726 47.6306 8.87726C57.6274 8.87726 62.2545 14.4327 62.871 23.014C62.9942 24.4337 62.934 25.7301 62.7477 27.3361H39.4256C40.1653 32.5819 43.5596 34.991 47.6306 35.0513C51.5181 35.2377 54.3563 33.1986 55.159 29.7425H62.3778C61.6381 36.841 55.0357 41.5935 47.8169 41.3468Z" fill="#E4DCD1"/>
<path d="M88.2309 25.615L79.7793 10.0613H88.0474L95.0196 23.8253H95.9428L102.792 10.0613H111.06L102.669 25.615L110.813 41.3551H102.669L95.8826 27.2211H95.0196L88.3542 41.3551H80.1491L88.2309 25.615Z" fill="#E4DCD1"/>
<path d="M135.678 22.0876V21.9013C135.678 17.8888 132.47 15.2358 127.533 15.2358C122.906 15.2358 120.191 17.7052 119.512 22.0876H135.678ZM127.843 41.3468C119.265 41.1604 112.17 35.9147 112.046 25.1737C112.046 15.9758 117.66 8.87726 127.657 8.87726C137.653 8.87726 142.28 14.4327 142.897 23.014C143.02 24.4337 142.96 25.7301 142.774 27.3361H119.451C120.191 32.5819 123.586 34.991 127.657 35.0513C131.544 35.2377 134.382 33.1986 135.185 29.7425H142.404C141.664 36.841 135.062 41.5935 127.843 41.3468Z" fill="#E4DCD1"/>
<path d="M75.0894 10.0585H67.624V41.3551H75.0894V10.0585Z" fill="#E4DCD1"/>
<path d="M67.6102 0.115112V7.00534H71.2374C73.0373 7.00534 74.4947 5.54726 74.4947 3.74659V0.117856H67.6074L67.6102 0.115112Z" fill="#E4DCD1"/>
<path d="M155.115 10.0585H147.65V41.3551H155.115V10.0585Z" fill="#E4DCD1"/>
<path d="M147.598 0.115112V7.00534H151.225C153.025 7.00534 154.483 5.54726 154.483 3.74659V0.117856H147.595L147.598 0.115112Z" fill="#E4DCD1"/>
<path d="M396.826 32.7107C395.404 34.0701 393.552 34.4401 392.32 34.4401C390.591 34.3826 389.67 33.4535 389.67 31.7898V16.6637H398.245V9.44457H384.364V9.41443L380.446 9.43361C380.249 9.44457 380.131 9.44457 379.98 9.44457H376.033V16.6637H382.137V32.2832C382.137 37.222 385.347 41.3578 391.826 41.3578C394.911 41.3578 398.119 40.2478 399.664 38.8884L396.826 32.7135V32.7107Z" fill="#E4DCD1"/>
<path d="M390.098 0H382.323L382.26 7.03548C382.26 8.52918 381.441 9.23356 380.564 9.43089L384.361 9.43637V8.88822L385.714 8.76489C388.12 8.57852 389.972 7.34245 390.035 4.56608L390.098 0Z" fill="#D3691F"/>
</svg>
