<svg width="426" height="64" viewBox="0 0 426 64" fill="none" xmlns="http://www.w3.org/2000/svg">
<path d="M334.299 55.8052L336.179 60.0259H332.406L334.299 55.8052ZM333.875 54.7191L330.102 63.053H331.059L332.041 60.8647H336.547L337.518 63.053H338.524L334.751 54.7191H333.877H333.875Z" fill="#22352F"/>
<path d="M342.86 55.6411V62.19H344.799C346.894 62.19 348.227 60.784 348.227 58.9397V58.9155C348.227 57.0821 346.891 55.6411 344.799 55.6411H342.86ZM341.927 54.7781H344.802C347.405 54.7781 349.201 56.5632 349.201 58.8913V58.9155C349.201 61.2437 347.405 63.0529 344.802 63.0529H341.927V54.7755V54.7781Z" fill="#22352F"/>
<path d="M358.647 54.7782L355.692 61.9051L352.748 54.7782H351.707L355.264 63.1121H356.093L359.653 54.7782H358.647Z" fill="#22352F"/>
<path d="M369.679 58.9397V58.9155C369.679 57.0363 368.308 55.4986 366.415 55.4986C364.522 55.4986 363.175 57.0121 363.175 58.8913V58.9155C363.175 60.7947 364.546 62.3324 366.439 62.3324C368.332 62.3324 369.679 60.8189 369.679 58.9397ZM362.207 58.9397V58.9155C362.207 56.6331 363.923 54.6356 366.439 54.6356C368.956 54.6356 370.65 56.6089 370.65 58.8913V58.9155C370.65 61.1979 368.935 63.1954 366.418 63.1954C363.901 63.1954 362.207 61.2221 362.207 58.9397Z" fill="#22352F"/>
<path d="M374.03 58.9397V58.9155C374.03 56.6465 375.697 54.6356 378.182 54.6356C379.577 54.6356 380.44 55.0362 381.269 55.7352L380.666 56.4449C380.04 55.8884 379.306 55.4986 378.147 55.4986C376.313 55.4986 375.001 57.0471 375.001 58.8913V58.9155C375.001 60.8888 376.265 62.3566 378.276 62.3566C379.222 62.3566 380.096 61.991 380.664 61.5286V59.472H378.144V58.6332H381.562V61.9319C380.793 62.6281 379.647 63.1954 378.238 63.1954C375.638 63.1954 374.027 61.3028 374.027 58.9397" fill="#22352F"/>
<path d="M388.929 55.8052L390.809 60.0259H387.036L388.929 55.8052ZM388.504 54.7191L384.732 63.053H385.689L386.671 60.8647H391.177L392.148 63.053H393.154L389.381 54.7191H388.507H388.504Z" fill="#22352F"/>
<path d="M397.491 55.6411V62.19H399.429C401.524 62.19 402.858 60.784 402.858 58.9397V58.9155C402.858 57.0821 401.521 55.6411 399.429 55.6411H397.491ZM396.558 54.7781H399.432C402.035 54.7781 403.831 56.5632 403.831 58.8913V58.9155C403.831 61.2437 402.035 63.0529 399.432 63.0529H396.558V54.7755V54.7781Z" fill="#22352F"/>
<path d="M414.684 58.9397V58.9155C414.684 57.0363 413.313 55.4986 411.42 55.4986C409.527 55.4986 408.179 57.0121 408.179 58.8913V58.9155C408.179 60.7947 409.551 62.3324 411.444 62.3324C413.337 62.3324 414.684 60.8189 414.684 58.9397ZM407.211 58.9397V58.9155C407.211 56.6331 408.927 54.6356 411.444 54.6356C413.961 54.6356 415.655 56.6089 415.655 58.8913V58.9155C415.655 61.1979 413.939 63.1954 411.422 63.1954C408.905 63.1954 407.211 61.2221 407.211 58.9397Z" fill="#22352F"/>
<path d="M418.8 61.8459L419.381 61.1603C420.244 61.9534 421.072 62.3298 422.218 62.3298C423.363 62.3298 424.062 61.7383 424.062 60.9237V60.8995C424.062 60.1307 423.648 59.7059 421.911 59.3269C420.008 58.9129 419.134 58.2972 419.134 56.9396V56.9154C419.134 55.6277 420.282 54.6572 421.852 54.6572C423.07 54.6572 423.909 54.9986 424.762 55.6734L424.218 56.3939C423.449 55.7675 422.68 55.4959 421.831 55.4959C420.742 55.4959 420.069 56.0766 420.069 56.8321V56.8562C420.069 57.6359 420.484 58.0848 422.317 58.4639C424.162 58.8779 425.014 59.5392 425.014 60.8055V60.8297C425.014 62.2491 423.831 63.1712 422.188 63.1712C420.863 63.1712 419.801 62.7465 418.806 61.8459" fill="#22352F"/>
<path d="M363.829 9.11618V15.1569H360.804C357.44 15.1569 355.06 15.7941 353.527 17.0953C351.97 18.4233 351.185 20.6331 351.185 23.6656V40.5647H343.315V9.89849H351.121V14.2563C351.492 13.673 352.067 12.888 352.917 12.1137C353.288 11.775 354.377 10.8314 356.063 10.1378C357.58 9.51136 358.822 9.39845 360.677 9.22908C361.97 9.1108 363.054 9.10005 363.826 9.11618" fill="#22352F"/>
<path d="M326.894 28.6902C326.894 31.1743 326.084 33.0024 324.484 34.1207C322.987 35.1665 321.166 35.6961 319.077 35.6961C316.988 35.6961 315.431 35.3117 314.28 34.5213C313.059 33.6772 312.411 32.4136 312.411 30.8732C312.411 29.3328 313.032 28.08 314.253 27.1794C315.393 26.346 317.017 25.9212 319.074 25.9212H326.888V28.6849L326.894 28.6902ZM330.693 11.732C328.208 9.93888 324.197 9.03021 318.76 9.03021H308.741V15.1812L320.749 15.2457C322.567 15.2457 323.922 15.5065 324.877 16.0415C325.95 16.6437 326.603 17.7163 326.821 19.2272L326.98 20.3482H319.332C314.665 20.3482 311.029 21.2865 308.528 23.1441C306.079 24.9561 304.888 27.467 304.888 30.8114C304.888 34.1557 305.998 36.6989 308.273 38.5431C310.575 40.4008 313.777 41.3444 317.792 41.3444C321.336 41.3444 324.162 40.5245 326.186 38.9034L327.851 37.5753V40.5164H334.285V20.7569C334.285 16.4931 333.073 13.4553 330.685 11.7293" fill="#22352F"/>
<path d="M260.306 20.5848C260.306 11.2616 255.823 7.68871 249.104 7.68871H241.535V33.4809H249.104C255.826 33.4809 260.306 29.9081 260.306 20.5848ZM234.267 0.604864H248.015C260.067 0.604864 267.636 6.59993 267.636 20.5848C267.636 34.5697 260.067 40.5648 248.015 40.5648H234.267V0.602173V0.604864Z" fill="#22352F"/>
<path d="M293.616 9.26141V24.6416C293.616 30.4538 290.71 33.5427 285.259 33.4809C280.898 33.4809 279.204 31.4216 279.204 27.2439V9.26141H272.178V28.3354C272.178 35.2983 275.025 40.5648 283.321 40.5648C287.15 40.5648 291.546 38.8093 293.616 35.9381V40.0809H300.702V9.26141H293.616Z" fill="#22352F"/>
<path d="M418.852 21.6655V21.4827C418.852 17.5469 415.703 14.9446 410.858 14.9446C406.316 14.9446 403.651 17.3668 402.984 21.6655H418.852ZM411.161 40.5567C402.742 40.3739 395.778 35.2283 395.657 24.6926C395.657 15.6705 401.167 8.70758 410.979 8.70758C420.79 8.70758 425.332 14.1569 425.937 22.5742C426.058 23.9668 425.999 25.2384 425.816 26.8137H402.923C403.649 31.9593 406.98 34.3224 410.976 34.3815C414.791 34.5643 417.577 32.5642 418.365 29.1741H425.45C424.724 36.137 418.244 40.7986 411.159 40.5567" fill="#22352F"/>
<path d="M180.642 9.11618V15.1569H177.617C174.254 15.1569 171.874 15.7941 170.341 17.0953C168.784 18.4233 167.999 20.6331 167.999 23.6656V40.5647H160.129V9.89849H167.935V14.2563C168.306 13.673 168.881 12.888 169.731 12.1137C170.102 11.775 171.191 10.8314 172.877 10.1378C174.393 9.51136 175.636 9.39845 177.491 9.22908C178.784 9.1108 179.868 9.10005 180.64 9.11618" fill="#22352F"/>
<path d="M203.724 28.6902C203.724 31.1743 202.915 33.0024 201.315 34.1207C199.817 35.1665 197.997 35.6961 195.907 35.6961C193.818 35.6961 192.261 35.3117 191.11 34.5213C189.89 33.6772 189.242 32.4136 189.242 30.8732C189.242 29.3328 189.863 28.08 191.083 27.1794C192.224 26.346 193.848 25.9212 195.905 25.9212H203.719V28.6849L203.724 28.6902ZM207.521 11.732C205.036 9.93888 201.024 9.03021 195.587 9.03021H185.569V15.1812L197.577 15.2457C199.395 15.2457 200.75 15.5065 201.705 16.0415C202.777 16.6437 203.431 17.7163 203.649 19.2272L203.807 20.3482H196.16C191.492 20.3482 187.857 21.2865 185.356 23.1441C182.907 24.9561 181.715 27.467 181.715 30.8114C181.715 34.1557 182.826 36.6989 185.101 38.5431C187.402 40.4008 190.605 41.3444 194.622 41.3444C198.166 41.3444 200.992 40.5245 203.017 38.9034L204.681 37.5753V40.5164H211.116V20.7569C211.116 16.4931 209.903 13.4553 207.515 11.7293" fill="#22352F"/>
<path d="M0 0.604858V7.68871H12.7776V40.5648H20.1667V7.68871H32.9443V0.604858H0Z" fill="#22352F"/>
<path d="M54.6248 21.6655V21.4827C54.6248 17.5469 51.4761 14.9446 46.6307 14.9446C42.0892 14.9446 39.4245 17.3668 38.7577 21.6655H54.6248ZM46.9319 40.5567C38.513 40.3739 31.5487 35.2283 31.4277 24.6926C31.4277 15.6705 36.9373 8.70758 46.749 8.70758C56.5608 8.70758 61.1024 14.1569 61.7074 22.5742C61.8284 23.9668 61.7692 25.2384 61.5864 26.8137H38.6958C39.4218 31.9593 42.7533 34.3224 46.749 34.3815C50.5646 34.5643 53.3503 32.5642 54.1381 29.1741H61.2234C60.4974 36.137 54.0171 40.7986 46.9319 40.5567Z" fill="#22352F"/>
<path d="M86.5985 25.1255L78.3032 9.86896H86.4183L93.2615 23.3699H94.1677L100.89 9.86896H109.005L100.769 25.1255L108.763 40.5647H100.769L94.1085 26.7008H93.2615L86.7195 40.5647H78.6662L86.5985 25.1255Z" fill="#22352F"/>
<path d="M133.168 21.6655V21.4827C133.168 17.5469 130.019 14.9446 125.173 14.9446C120.632 14.9446 117.967 17.3668 117.3 21.6655H133.168ZM125.477 40.5567C117.058 40.3739 110.094 35.2283 109.973 24.6926C109.973 15.6705 115.483 8.70758 125.294 8.70758C135.106 8.70758 139.648 14.1569 140.253 22.5742C140.374 23.9668 140.315 25.2384 140.132 26.8137H117.241C117.967 31.9593 121.299 34.3224 125.294 34.3815C129.11 34.5643 131.896 32.5642 132.684 29.1741H139.769C139.043 36.137 132.563 40.7986 125.477 40.5567Z" fill="#22352F"/>
<path d="M73.6998 9.86627H66.3726V40.5647H73.6998V9.86627Z" fill="#22352F"/>
<path d="M66.3591 0.112915V6.87148H69.9192C71.6858 6.87148 73.1163 5.44126 73.1163 3.675V0.115606H66.3564L66.3591 0.112915Z" fill="#22352F"/>
<path d="M152.245 9.86627H144.917V40.5647H152.245V9.86627Z" fill="#22352F"/>
<path d="M144.866 0.112915V6.87148H148.427C150.193 6.87148 151.624 5.44126 151.624 3.675V0.115606H144.864L144.866 0.112915Z" fill="#22352F"/>
<path d="M389.483 32.0857C388.087 33.4191 386.27 33.782 385.06 33.782C383.363 33.7256 382.46 32.8142 382.46 31.1824V16.3453H390.876V9.26413H377.251V9.23456L373.406 9.25337C373.212 9.26412 373.097 9.26413 372.949 9.26413H369.074V16.3453H375.065V31.6663C375.065 36.5107 378.216 40.5675 384.576 40.5675C387.603 40.5675 390.752 39.4787 392.269 38.1453L389.483 32.0884V32.0857Z" fill="#22352F"/>
<path d="M382.879 0H375.248L375.186 6.90104C375.186 8.3662 374.382 9.05711 373.522 9.25067L377.249 9.25605V8.71837L378.577 8.5974C380.938 8.41459 382.756 7.20214 382.817 4.47882L382.879 0Z" fill="#D3691F"/>
</svg>
